# AST/ASF file generated using VICON BodyLanguage
# -----------------------------------------------
:version 1.10
:name VICON
:units
  mass 1.0
  length 0.45
  angle deg
:documentation
   .ast/.asf automatically generated from VICON data using
   VICON BodyBuilder and BodyLanguage model FoxedUp or BRILLIANT.MOD
:root
   order TX TY TZ RX RY RZ
   axis XYZ
   position 0 0 0  
   orientation 0 0 0 
:bonedata
  begin
     id 1 
     name lhipjoint
     direction 0.660183 -0.676772 0.325788 
     length 2.75133 
     axis 0 0 0  XYZ
  end
  begin
     id 2 
     name lfemur
     direction 0.34202 -0.939693 0  
     length 7.70317  
     axis 0 0 20  XYZ
    dof rx ry rz
    limits (-160.0 20.0)
           (-70.0 70.0)
           (-60.0 70.0)
  end
  begin
     id 3 
     name ltibia
     direction 0.342105 -0.939662 0   
     length 7.18701   
     axis 0 0 20   XYZ
    dof rx
    limits (-10.0 170.0)
  end
  begin
     id 4 
     name lfoot
     direction 0.14163 -0.389126 0.910232   
     length 2.41719   
     axis -90 7.62852e-016 20   XYZ
    dof rx rz
    limits (-45.0 90.0)
           (-70.0 20.0)
  end
  begin
     id 5 
     name ltoes
     direction 1.53533e-011 -4.21926e-011 1   
     length 1.18611   
     axis -90 7.62852e-016 20   XYZ
    dof rx
    limits (-90.0 20.0)
  end
  begin
     id 6 
     name rhipjoint
     direction -0.6658 -0.67229 0.323631   
     length 2.76968  
     axis 0 0 0  XYZ 
  end
  begin
     id 7 
     name rfemur
     direction -0.34202 -0.939693 0   
     length 7.92547   
     axis 0 0 -20   XYZ
    dof rx ry rz
    limits (-160.0 20.0)
           (-70.0 70.0)
           (-70.0 60.0)
  end
  begin
     id 8 
     name rtibia
     direction -0.342022 -0.939692 0   
     length 7.22641   
     axis 0 0 -20   XYZ
    dof rx
    limits (-10.0 170.0)
 end
 begin
     id 9 
     name rfoot
     direction -0.105675 -0.29034 0.951071   
     length 2.48149  
     axis -90 -7.62852e-016 -20   XYZ
    dof rx rz
    limits (-45.0 90.0)
           (-20.0 70.0)
  end
  begin
     id 10 
     name rtoes
     direction -1.5349e-011 -4.21859e-011 1   
     length 1.23343   
     axis -90 -7.62852e-016 -20   XYZ
    dof rx
    limits (-90.0 20.0)
  end
  begin
     id 11 
     name lowerback
     direction 0.0104173 0.993624 -0.112266   
     length 2.00527   
     axis 0 0 0   XYZ
    dof rx ry rz
    limits (-20.0 45.0)
           (-30.0 30.0)
           (-30.0 30.0)
  end
  begin
     id 12 
     name upperback
     direction 0.00733149 0.999856 -0.0152913   
     length 2.01385   
     axis 0 0 0   XYZ
    dof rx ry rz
    limits (-20.0 45.0)
           (-30.0 30.0)
           (-30.0 30.0)
  end
  begin
     id 13 
     name thorax
     direction 0.0026304 0.999318 0.036841   
     length 2.03734   
     axis 0 0 0   XYZ
    dof rx ry rz
    limits (-20.0 45.0)
           (-30.0 30.0)
           (-30.0 30.0)
  end
  begin
     id 14 
     name lowerneck
     direction 0.0293154 0.998757 0.0403082   
     length 1.65303   
     axis 0 0 0   XYZ
    dof rx ry rz
    limits (-20.0 45.0)
           (-30.0 30.0)
           (-30.0 30.0)
  end
  begin
     id 15 
     name upperneck
     direction -0.0376619 0.998184 -0.0470083   
     length 1.60926   
     axis 0 0 0   XYZ
    dof rx ry rz
    limits (-20.0 45.0)
           (-30.0 30.0)
           (-30.0 30.0)
  end
  begin
     id 16
     name head
     direction -0.0170133 0.999635 -0.0209778  
     length 1.73625  
     axis 0 0 0   XYZ
    dof rx ry rz
    limits (-20.0 45.0)
           (-30.0 30.0)
           (-30.0 30.0)
  end
  begin
     id 17 
     name lclavicle
     direction 0.919857 0.39181 -0.0186333  
     length 3.75313  
     axis 0 0 0   XYZ
    dof ry rz
    limits (-20.0 10.0)
           (0.0 20.0)
  end
  begin
     id 18 
     name lhumerus
     direction 1 -4.48988e-011 1.44029e-027   
     length 5.49313   
     axis 180 -30 -90   XYZ
    dof rx ry rz
    limits (-60.0 90.0)
           (-90.0 90.0)
           (-90.0 90.0)
  end
  begin
     id 19
     name lradius
     direction 1 -4.48924e-011 7.46281e-027   
     length 3.29037   
     axis 180 -30 -90   XYZ
    dof rx
    limits (-10.0 170.0)
  end
  begin
     id 20
     name lwrist
     direction 1 -4.48955e-011 2.19879e-026   
     length 1.64519   
     axis -1.34358e-014 90 90   XYZ
    dof ry
    limits (-180.0 0.0)
 end
  begin
     id 21 
     name lhand
     direction 1 -4.48978e-011 4.39747e-026   
     length 0.729656   
     axis -2.80598e-014 90 90   XYZ
    dof rx rz
    limits (-90.0 90.0)
           (-45.0 45.0)
  end
  begin
     id 22 
     name lfingers
     direction 1 -4.49071e-011 8.79411e-026   
     length 0.588268   
     axis -5.61193e-014 90 90   XYZ
    dof rx
    limits (0.0 90.0)
  end
  begin
     id 23
     name lthumb
     direction 0.707107 -6.34817e-011 0.707107   
     length 0.844638   
     axis -90 45 -9.86923e-015   XYZ
    dof rx rz
    limits (-45.0 45.0)
           (-45.0 45.0)
  end
  begin
     id 24 
     name rclavicle
     direction -0.919898 0.388279 0.0550233   
     length 3.7171  
     axis 0 0 0   XYZ 
    dof ry rz
    limits (-10.0 20.0)
           (-20.0 0.0)
  end
  begin
     id 25 
     name rhumerus
     direction -1 -4.48968e-011 9.98372e-028  
     length 5.23684   
     axis 180 30 90   XYZ
    dof rx ry rz
    limits (-90.0 60.0)
           (-90.0 90.0)
           (-90.0 90.0)
  end
  begin
     id 26 
     name rradius
     direction -1 -4.48956e-011 1.01023e-026   
     length 3.38251   
     axis 180 30 90   XYZ
    dof rx
    limits (-10.0 170.0)
  end
  begin
     id 27 
     name rwrist
     direction -1 -4.4892e-011 2.19886e-026   
     length 1.69126   
     axis -1.34358e-014 -90 -90   XYZ
    dof ry
    limits (-180.0 0.0)
  end
  begin
     id 28
     name rhand
     direction -1 -4.49024e-011 4.39727e-026   
     length 0.691454   
     axis -2.80598e-014 -90 -90   XYZ
    dof rx rz
    limits (-90.0 90.0)
           (-45.0 45.0)
  end
  begin
     id 29
     name rfingers
     direction -1 -4.49097e-011 8.79388e-026   
     length 0.557468   
     axis -5.61193e-014 -90 -90   XYZ
    dof rx
    limits (0.0 90.0)
  end
  begin
     id 30
     name rthumb
     direction -0.707107 -6.34938e-011 0.707107   
     length 0.800416   
     axis -90 -45 9.86923e-015   XYZ
    dof rx rz
    limits (-45.0 45.0)
           (-45.0 45.0)
  end
:hierarchy
  begin
    root lhipjoint rhipjoint lowerback
    lhipjoint lfemur
    lfemur ltibia
    ltibia lfoot
    lfoot ltoes
    rhipjoint rfemur
    rfemur rtibia
    rtibia rfoot
    rfoot rtoes
    lowerback upperback
    upperback thorax
    thorax lowerneck lclavicle rclavicle
    lowerneck upperneck
    upperneck head
    lclavicle lhumerus
    lhumerus lradius
    lradius lwrist
    lwrist lhand lthumb
    lhand lfingers
    rclavicle rhumerus
    rhumerus rradius
    rradius rwrist
    rwrist rhand rthumb
    rhand rfingers
  end

#!OML:ASF H:\BabyWalks\Project 1\Capture day 1\Session 1\baby.ASF
:FULLY-SPECIFIED
:DEGREES
196
root -28.6247 17.4481 -2.53304 0.0142455 78.4451 -7.40983
lowerback 16.5423 -0.730448 -1.77836
upperback 4.82305 -0.885583 2.57119
thorax -4.04901 -0.343857 3.89774
lowerneck -1.16103 0.615895 9.71961
upperneck -6.20421 0.198538 -18.0585
head -1.53643 0.326664 -7.16791
rclavicle 2.13694e-014 -2.8625e-014
rhumerus -50.9898 19.0835 -86.8327
rradius 45.2315
rwrist -4.10694
rhand -12.9799 -14.2376
rfingers 7.12502
rthumb 13.1125 -43.8053
lclavicle 2.13694e-014 -2.8625e-014
lhumerus -45.727 -5.83931 82.1305
lradius 52.795
lwrist 3.43286
lhand -2.91091 8.73017
lfingers 7.12502
lthumb 22.7995 37.4028
rfemur -21.8243 15.2524 17.6881
rtibia 35.8125
rfoot -21.7789 4.30494
rtoes -1.39795
lfemur -4.31762 5.44731 -17.0153
ltibia 37.8773
lfoot -19.6238 -23.9983
ltoes 5.92532
197
root -28.5102 17.4054 -2.50555 -0.822218 78.7902 -7.82249
lowerback 16.8001 -0.726107 -1.30364
upperback 4.95539 -0.778197 2.77442
thorax -4.0595 -0.287424 3.8259
lowerneck -1.05128 0.457765 9.79576
upperneck -6.3798 -0.0357967 -18.2497
head -1.63804 0.225946 -7.24593
rclavicle 2.10712e-014 1.39149e-014
rhumerus -50.7138 18.7449 -86.6083
rradius 45.0426
rwrist -3.86426
rhand -13.1819 -14.328
rfingers 7.12502
rthumb 12.9178 -43.9081
lclavicle 2.10712e-014 1.39149e-014
lhumerus -46.0219 -5.7246 82.4831
lradius 52.2983
lwrist 3.39148
lhand -3.40913 8.77524
lfingers 7.12502
lthumb 22.3213 37.5059
rfemur -21.0366 15.6783 18.0344
rtibia 36.4072
rfoot -22.5725 3.59555
rtoes -1.13236
lfemur -4.98958 6.02713 -16.4639
ltibia 40.524
lfoot -17.8247 -25.6399
ltoes 5.16964
198
root -28.3973 17.3622 -2.48059 -2.51197 79.0956 -9.0907
lowerback 17.1145 -0.733209 -0.689942
upperback 5.09755 -0.653994 3.02808
thorax -4.09073 -0.221209 3.7258
lowerneck -0.948521 0.338259 9.86601
upperneck -6.55798 -0.218831 -18.4594
head -1.73215 0.151627 -7.32913
rclavicle 4.81059e-014 8.34896e-015
rhumerus -50.3645 18.465 -86.3465
rradius 44.8041
rwrist -3.57738
rhand -13.2488 -14.3882
rfingers 7.12502
rthumb 12.8533 -43.9724
lclavicle 4.81059e-014 8.34896e-015
lhumerus -46.3447 -5.55148 82.8433
lradius 51.8217
lwrist 3.36253
lhand -4.1068 8.86068
lfingers 7.12502
lthumb 21.6514 37.6701
rfemur -20.2138 16.0403 18.5629
rtibia 36.8979
rfoot -23.3514 3.03142
rtoes -1.01639
lfemur -5.78309 6.45699 -15.7329
ltibia 43.3273
lfoot -15.7922 -27.1577
ltoes 4.1161
199
root -28.2855 17.3193 -2.45805 -5.02784 79.3619 -11.2006
lowerback 17.4596 -0.757533 0.0407896
upperback 5.25028 -0.52203 3.33126
thorax -4.12603 -0.14971 3.61021
lowerneck -0.873592 0.259011 9.92868
upperneck -6.72076 -0.347285 -18.6885
head -1.80931 0.1039 -7.41751
rclavicle -8.34896e-015 -1.66979e-014
rhumerus -49.9357 18.2507 -86.0408
rradius 44.5183
rwrist -3.24219
rhand -13.1802 -14.4208
rfingers 7.12502
rthumb 12.9195 -44.0009
lclavicle -8.34896e-015 -1.66979e-014
lhumerus -46.6891 -5.33441 83.2195
lradius 51.3566
lwrist 3.33951
lhand -4.97174 8.98015
lfingers 7.12502
lthumb 20.8206 37.883
rfemur -19.3585 16.3047 19.2592
rtibia 37.2665
rfoot -24.0765 2.54301
rtoes -1.24482
lfemur -6.69286 6.72888 -14.8535
ltibia 46.2203
lfoot -13.6799 -28.4895
ltoes 2.84499
200
root -28.1726 17.2768 -2.43841 -8.23263 79.5321 -14.0131
lowerback 17.796 -0.784455 0.85867
upperback 5.42555 -0.368443 3.67267
thorax -4.13154 -0.0661332 3.4805
lowerneck -0.835102 0.216813 9.98834
upperneck -6.86095 -0.425019 -18.9361
head -1.86628 0.0800007 -7.51163
rclavicle 2.38542e-015 2.54444e-014
rhumerus -49.4238 18.1002 -85.6896
rradius 44.1902
rwrist -2.85507
rhand -12.9863 -14.4307
rfingers 7.12502
rthumb 13.1064 -43.9989
lclavicle 2.38542e-015 2.54444e-014
lhumerus -47.0519 -5.09219 83.6167
lradius 50.9055
lwrist 3.30975
lhand -5.97137 9.11895
lfingers 7.12502
lthumb 19.8599 38.1242
rfemur -18.4635 16.4885 20.0901
rtibia 37.5176
rfoot -24.6756 2.01205
rtoes -1.65292
lfemur -7.66863 6.88212 -13.8681
ltibia 49.1352
lfoot -11.7458 -29.5505
ltoes 1.38626
201
root -28.059 17.2359 -2.42109 -11.7795 79.6251 -17.2081
lowerback 18.1187 -0.802977 1.7308
upperback 5.57943 -0.18806 4.01526
thorax -4.15058 0.0317716 3.31546
lowerneck -0.774121 0.185077 10.0864
upperneck -6.96348 -0.483457 -19.1889
head -1.91364 0.064426 -7.61441
rclavicle -9.54166e-015 -4.77083e-015
rhumerus -48.9032 17.9302 -85.3235
rradius 43.8227
rwrist -2.36392
rhand -12.7009 -14.4046
rfingers 7.12502
rthumb 13.3815 -43.9549
lclavicle -9.54166e-015 -4.77083e-015
lhumerus -47.4823 -4.92693 84.0303
lradius 50.4746
lwrist 3.26934
lhand -7.04621 9.27735
lfingers 7.12502
lthumb 18.8264 38.3863
rfemur -17.5659 16.5777 20.9802
rtibia 37.6746
rfoot -25.1659 1.45506
rtoes -2.21049
lfemur -8.72084 6.91183 -12.8519
ltibia 52.012
lfoot -10.1868 -30.318
ltoes -0.0578357
202
root -27.9444 17.1973 -2.40569 -15.2867 79.6483 -20.4163
lowerback 18.4143 -0.810735 2.59122
upperback 5.70591 0.00816873 4.34396
thorax -4.18077 0.137803 3.13878
lowerneck -0.698565 0.165864 10.2072
upperneck -7.02853 -0.519505 -19.4353
head -1.94962 0.0583495 -7.71918
rclavicle -2.10712e-014 -3.73715e-014
rhumerus -48.3798 17.7524 -84.9468
rradius 43.4298
rwrist -1.79724
rhand -12.3605 -14.3356
rfingers 7.12502
rthumb 13.7096 -43.864
lclavicle -2.10712e-014 -3.73715e-014
lhumerus -47.9696 -4.84181 84.4614
lradius 50.0447
lwrist 3.21672
lhand -8.13403 9.43933
lfingers 7.12502
lthumb 17.7799 38.6465
rfemur -16.6913 16.5852 21.8517
rtibia 37.7464
rfoot -25.6584 1.07912
rtoes -2.60092
lfemur -9.84328 6.85599 -11.8782
ltibia 54.7856
lfoot -9.13819 -30.7844
ltoes -1.31855
203
root -27.8293 17.1616 -2.39149 -18.3964 79.6369 -23.2936
lowerback 18.6487 -0.797268 3.37235
upperback 5.80635 0.216272 4.64222
thorax -4.20263 0.249114 2.97151
lowerneck -0.595907 0.149472 10.3526
upperneck -7.07132 -0.547108 -19.6639
head -1.9829 0.0554792 -7.8226
rclavicle -4.37326e-015 -1.59028e-015
rhumerus -47.8492 17.5388 -84.5544
rradius 43.0213
rwrist -1.15479
rhand -11.9944 -14.242
rfingers 7.12502
rthumb 14.0624 -43.7462
lclavicle -4.37326e-015 -1.59028e-015
lhumerus -48.495 -4.85779 84.9084
lradius 49.6142
lwrist 3.14107
lhand -9.15699 9.60976
lfingers 7.12502
lthumb 16.7953 38.9034
rfemur -15.8851 16.5232 22.6293
rtibia 37.7799
rfoot -26.144 0.767901
rtoes -2.93868
lfemur -11.0462 6.73763 -11.018
ltibia 57.4308
lfoot -8.68428 -30.9306
ltoes -2.34126
204
root -27.7123 17.1343 -2.37788 -20.8857 79.6125 -25.6126
lowerback 18.8325 -0.753294 4.03641
upperback 5.87372 0.438114 4.89419
thorax -4.23012 0.365707 2.81788
lowerneck -0.458714 0.12983 10.5213
upperneck -7.09517 -0.574144 -19.8668
head -2.01703 0.0520794 -7.92182
rclavicle -1.19271e-014 -2.94201e-014
rhumerus -47.3328 17.2689 -84.1529
rradius 42.614
rwrist -0.450672
rhand -11.6482 -14.1276
rfingers 7.12502
rthumb 14.396 -43.6084
lclavicle -1.19271e-014 -2.94201e-014
lhumerus -49.0591 -4.98784 85.3653
lradius 49.1805
lwrist 3.02866
lhand -10.0375 9.77224
lfingers 7.12502
lthumb 15.9476 39.1357
rfemur -15.1433 16.4197 23.2681
rtibia 37.7794
rfoot -26.6249 0.532903
rtoes -3.21251
lfemur -12.2961 6.59984 -10.3132
ltibia 59.893
lfoot -8.78825 -30.7616
ltoes -3.08135
205
root -27.5956 17.107 -2.36494 -22.6783 79.6016 -27.2951
lowerback 18.964 -0.677664 4.56029
upperback 5.91365 0.668117 5.09666
thorax -4.2573 0.48444 2.68841
lowerneck -0.301754 0.10734 10.6987
upperneck -7.10093 -0.600434 -20.0364
head -2.0497 0.0477837 -8.01148
rclavicle 2.22639e-014 -5.88403e-014
rhumerus -46.8249 16.9398 -83.7385
rradius 42.2198
rwrist 0.292708
rhand -11.3579 -14.007
rfingers 7.12502
rthumb 14.6757 -43.4676
lclavicle 2.22639e-014 -5.88403e-014
lhumerus -49.6405 -5.21204 85.8226
lradius 48.7367
lwrist 2.85781
lhand -10.7011 9.94409
lfingers 7.12502
lthumb 15.3084 39.3575
rfemur -14.4923 16.2937 23.7468
rtibia 37.7682
rfoot -27.0741 0.355498
rtoes -3.42239
lfemur -13.6168 6.47371 -9.77819
ltibia 62.1754
lfoot -9.36096 -30.2976
ltoes -3.58455
206
root -27.4783 17.0855 -2.35233 -23.7875 79.6275 -28.3511
lowerback 19.0533 -0.576768 4.93337
upperback 5.93224 0.895299 5.25226
thorax -4.28424 0.599877 2.5943
lowerneck -0.155837 0.0896808 10.8655
upperneck -7.08312 -0.616179 -20.1697
head -2.07232 0.0463259 -8.08684
rclavicle -2.78299e-015 1.35174e-014
rhumerus -46.3135 16.563 -83.308
rradius 41.8525
rwrist 1.04146
rhand -11.1617 -13.9126
rfingers 7.12502
rthumb 14.8647 -43.3593
lclavicle -2.78299e-015 1.35174e-014
lhumerus -50.2096 -5.50285 86.272
lradius 48.2642
lwrist 2.61975
lhand -11.0793 10.0816
lfingers 7.12502
lthumb 14.9441 39.5225
rfemur -13.9086 16.1593 24.0648
rtibia 37.7259
rfoot -27.484 0.215254
rtoes -3.58792
lfemur -14.9884 6.37052 -9.41606
ltibia 64.2316
lfoot -10.2371 -29.5828
ltoes -3.97294
207
root -27.3597 17.0703 -2.34014 -24.2858 79.6897 -28.8393
lowerback 19.1201 -0.455518 5.1697
upperback 5.93423 1.11694 5.36356
thorax -4.3173 0.710777 2.5309
lowerneck -0.0495935 0.0835954 11.007
upperneck -7.02844 -0.612081 -20.2647
head -2.07448 0.0508574 -8.14427
rclavicle -3.57812e-015 -3.49861e-014
rhumerus -45.8068 16.1524 -82.8696
rradius 41.5301
rwrist 1.76329
rhand -11.0994 -13.8735
rfingers 7.12502
rthumb 14.9247 -43.3158
lclavicle -3.57812e-015 -3.49861e-014
lhumerus -50.7622 -5.81014 86.6873
lradius 47.7797
lwrist 2.28459
lhand -11.0942 10.1988
lfingers 7.12502
lthumb 14.9297 39.6408
rfemur -13.3656 16.0403 24.2434
rtibia 37.6508
rfoot -27.8685 0.0861609
rtoes -3.70134
lfemur -16.3888 6.30169 -9.21108
ltibia 66.0442
lfoot -11.3335 -28.6827
ltoes -4.40545
208
root -27.2394 17.0613 -2.32932 -24.2141 79.7509 -28.8
lowerback 19.1629 -0.310317 5.29607
upperback 5.92869 1.34222 5.4355
thorax -4.34661 0.822058 2.48617
lowerneck -0.00162255 0.0948532 11.1098
upperneck -6.93298 -0.581063 -20.3224
head -2.05052 0.0643265 -8.18144
rclavicle -1.74931e-014 -3.49861e-014
rhumerus -45.2993 15.7218 -82.4275
rradius 41.2605
rwrist 2.42214
rhand -11.1947 -13.9071
rfingers 7.12502
rthumb 14.833 -43.3562
lclavicle -1.74931e-014 -3.49861e-014
lhumerus -51.2819 -6.10179 87.0521
lradius 47.2832
lwrist 1.85075
lhand -10.7108 10.2336
lfingers 7.12502
lthumb 15.2991 39.6477
rfemur -12.8451 15.9647 24.3067
rtibia 37.5005
rfoot -28.1946 -0.0211545
rtoes -3.76663
lfemur -17.7961 6.29185 -9.13786
ltibia 67.5806
lfoot -12.5409 -27.6604
ltoes -4.87893
209
root -27.1168 17.0593 -2.31861 -23.8462 79.8739 -28.4868
lowerback 19.1975 -0.168361 5.33467
upperback 5.91537 1.54258 5.47517
thorax -4.38082 0.920099 2.46169
lowerneck -0.0172643 0.122465 11.178
upperneck -6.78778 -0.52406 -20.3476
head -1.99706 0.0857267 -8.20046
rclavicle 0 4.29375e-014
rhumerus -44.8112 15.2737 -81.9991
rradius 41.0479
rwrist 3.01696
rhand -11.5038 -14.0254
rfingers 7.12502
rthumb 14.5351 -43.4962
lclavicle 0 4.29375e-014
lhumerus -51.764 -6.36975 87.3498
lradius 46.7748
lwrist 1.32968
lhand -9.90143 10.1729
lfingers 7.12502
lthumb 16.0786 39.5258
rfemur -12.2897 15.9048 24.2933
rtibia 37.2489
rfoot -28.4721 -0.164808
rtoes -3.8094
lfemur -19.1948 6.26726 -9.17156
ltibia 68.8167
lfoot -13.7844 -26.6039
ltoes -5.36419
210
root -26.9915 17.0639 -2.31029 -23.0466 79.9671 -27.77
lowerback 19.2175 -0.0131221 5.30466
upperback 5.90838 1.74189 5.48569
thorax -4.40167 1.01715 2.44467
lowerneck -0.112082 0.178818 11.1866
upperneck -6.6038 -0.426504 -20.3387
head -1.91209 0.122747 -8.19649
rclavicle 3.4191e-014 4.29375e-014
rhumerus -44.332 14.8651 -81.5956
rradius 40.9093
rwrist 3.47863
rhand -12.0257 -14.2503
rfingers 7.12502
rthumb 14.0322 -43.7567
lclavicle 3.4191e-014 4.29375e-014
lhumerus -52.192 -6.55038 87.56
lradius 46.267
lwrist 0.732497
lhand -8.68248 10.0102
lfingers 7.12502
lthumb 17.2521 39.2644
rfemur -11.7131 15.8968 24.2053
rtibia 36.8796
rfoot -28.6718 -0.272823
rtoes -3.79902
lfemur -20.5624 6.28611 -9.30885
ltibia 69.7388
lfoot -15.0443 -25.5088
ltoes -5.91375
